<svg width="81" height="52" viewBox="0 0 81 52" fill="none" xmlns="http://www.w3.org/2000/svg">
<path d="M40.8114 51.9999C32.2557 51.9445 23.807 50.1183 16.011 46.6393C15.547 46.4351 15.1531 46.1022 14.8773 45.681C14.6016 45.2599 14.4559 44.7687 14.458 44.2672V23.2186C14.4588 22.529 14.7367 21.8679 15.2308 21.3803C15.7248 20.8927 16.3947 20.6184 17.0934 20.6177H64.5295C65.2282 20.6185 65.898 20.8927 66.3921 21.3803C66.8862 21.8679 67.164 22.529 67.1648 23.2186V44.2673C67.167 44.7687 67.0213 45.2599 66.7455 45.6811C66.4698 46.1022 66.0759 46.4352 65.6118 46.6393C57.8159 50.1183 49.3671 51.9445 40.8114 51.9999Z" fill="#A9B0F5"/>
<path d="M40.8049 34.9478C40.4532 34.9481 40.1051 34.879 39.7808 34.7446L2.16462 19.0817C1.67953 18.8797 1.26686 18.539 0.979812 18.1034C0.692767 17.6678 0.544507 17.1574 0.554154 16.6378C0.5638 16.1183 0.730923 15.6136 1.03395 15.1886C1.33697 14.7637 1.762 14.4381 2.25427 14.2539L39.871 0.169899C40.4769 -0.0579865 41.1467 -0.0565807 41.7516 0.17385L78.8643 14.2578C79.3537 14.4435 79.7759 14.7692 80.0768 15.1931C80.3777 15.617 80.5436 16.1199 80.5533 16.6373C80.563 17.1548 80.416 17.6634 80.1312 18.098C79.8464 18.5325 79.4367 18.8734 78.9545 19.0769L41.8414 34.7395C41.5137 34.8773 41.1611 34.9481 40.8049 34.9478Z" fill="#F1F2FF"/>
<path d="M18.8502 48.0717C20.7908 48.0717 22.364 46.5191 22.364 44.6038C22.364 42.6886 20.7908 41.136 18.8502 41.136C16.9096 41.136 15.3364 42.6886 15.3364 44.6038C15.3364 46.5191 16.9096 48.0717 18.8502 48.0717Z" fill="#B5548E"/>
<path opacity="0.2" d="M79.0829 16.8538L41.9697 32.5165C41.6804 32.6386 41.3691 32.7019 41.0544 32.7026C40.7397 32.7034 40.4281 32.6416 40.1382 32.5208L2.52197 16.8584C2.04956 16.6664 1.65545 16.3245 1.40189 15.8868C1.23602 16.1706 1.13325 16.486 1.10037 16.8121C1.06749 17.1382 1.10528 17.4674 1.21121 17.778C1.31715 18.0885 1.4888 18.3733 1.71479 18.6133C1.94079 18.8534 2.21593 19.0432 2.52197 19.1703L40.1382 34.8327C40.4281 34.9535 40.7397 35.0153 41.0544 35.0145C41.3691 35.0138 41.6804 34.9505 41.9697 34.8284L79.0829 19.1657C79.3874 19.0375 79.6609 18.8471 79.8853 18.6069C80.1097 18.3667 80.28 18.0823 80.3848 17.7725C80.4897 17.4626 80.5267 17.1343 80.4936 16.8092C80.4604 16.4842 80.3578 16.1697 80.1924 15.8867C79.9407 16.321 79.5506 16.6609 79.0829 16.8538Z" fill="#A9B0F5"/>
<path d="M19.1452 44.5903C19.3005 44.5903 19.4495 44.5294 19.5593 44.421C19.6691 44.3126 19.7308 44.1656 19.7308 44.0123V24.6724L39.0457 17.728C39.201 17.7303 39.3508 17.6716 39.4623 17.5648C39.5738 17.458 39.6377 17.3119 39.64 17.1586C39.6423 17.0053 39.5828 16.8574 39.4747 16.7474C39.3665 16.6374 39.2184 16.5743 39.0631 16.572L19.7483 23.5165C19.5929 23.5129 19.4383 23.5406 19.294 23.5977C19.1497 23.6549 19.0187 23.7403 18.9089 23.8489C18.7979 23.9562 18.7098 24.0843 18.6498 24.2258C18.5898 24.3672 18.5591 24.5191 18.5596 24.6724V44.0123C18.5596 44.1656 18.6213 44.3126 18.7311 44.421C18.8409 44.5294 18.9899 44.5903 19.1452 44.5903Z" fill="#B5548E"/>
</svg>
