<svg width="20rem" height="20rem" viewBox="0 0 200 200" fill="none" xmlns="http://www.w3.org/2000/svg">
    <path
        d="M158.85 165.808H5.4518C2.4409 165.808 0 163.367 0 160.356V31.4518C0 28.4409 2.4409 26 5.4518 26H158.85C161.861 26 164.301 28.4409 164.301 31.4518V160.356C164.301 163.367 161.861 165.808 158.85 165.808Z"
        fill="url(#gradient1)"
    />
    <path
        d="M8 157.808V33.9998H156.302V157.808H8Z"
        fill="url(#gradient2)"
    />
    <path
        opacity="0.05"
        fill-rule="evenodd"
        clip-rule="evenodd"
        d="M97.289 165.808H158.85C160.787 165.808 162.489 164.797 163.456 163.274V115.778C159.43 114.634 155.361 114 151.608 114H136.466C110.886 115.207 90.5992 139.892 97.289 165.808Z"
        fill="#494645"
    />
    <path
        d="M107.623 177.41C114.23 189.248 128.271 199.71 145.34 199.159H157.729C163.786 198.884 170.393 197.508 177.276 194.204L195.171 199.435C197.924 200.261 200.677 197.783 199.851 195.03C198.75 191.175 195.997 182.09 194.62 177.135C205.908 157.037 198.199 127.854 173.146 117.668C167.915 115.741 162.409 114.64 157.454 114.64H142.312C113.129 116.016 90.8287 147.952 107.623 177.41Z"
        fill="url(#gradient3)"
    />
    <path
        d="M152.646 155.779C152.842 156.829 152.663 158.013 152.088 159.068C151.517 160.124 150.544 160.994 149.439 161.471C148.885 161.713 148.312 161.865 147.72 161.94C147.116 162.008 146.497 161.984 145.91 161.839C144.733 161.579 143.692 160.892 143.071 159.967C142.75 159.489 142.877 158.843 143.354 158.522C143.608 158.352 143.909 158.308 144.184 158.375L144.328 158.412C145.097 158.604 145.741 158.684 146.339 158.655C146.919 158.62 147.492 158.482 148.046 158.258C148.588 158.035 149.039 157.718 149.48 157.303C149.903 156.87 150.274 156.304 150.656 155.58L150.706 155.485C150.973 154.978 151.602 154.783 152.109 155.051C152.399 155.204 152.588 155.48 152.646 155.779Z"
        fill="#615F5D"
    />
    <path
        d="M137.439 151.749C138.719 151.749 139.756 149.792 139.756 147.378C139.756 144.964 138.719 143.007 137.439 143.007C136.159 143.007 135.122 144.964 135.122 147.378C135.122 149.792 136.159 151.749 137.439 151.749Z"
        fill="#615F5D"
    />
    <path
        d="M153.473 151.749C154.753 151.749 155.79 149.792 155.79 147.378C155.79 144.964 154.753 143.007 153.473 143.007C152.193 143.007 151.156 144.964 151.156 147.378C151.156 149.792 152.193 151.749 153.473 151.749Z"
        fill="#615F5D"
    />
    <path
        d="M87.3444 143.788H25.2622V74.347H75.2123L87.3444 86.4791V143.788Z"
        fill="#FDFDFC"
    />
    <path d="M87.3445 86.4791H75.2124V74.347L87.3445 86.4791Z" fill="#EDEBE9" />
    <path
        d="M43.6305 95.6011H37.7873C36.8819 95.6011 36.1479 94.8672 36.1479 93.9618V88.1186C36.1479 87.2132 36.8819 86.4792 37.7873 86.4792H43.6305C44.5359 86.4792 45.2698 87.2132 45.2698 88.1186V93.9618C45.2699 94.8672 44.536 95.6011 43.6305 95.6011Z"
        fill="#E3E2F1"
    />
    <path
        d="M73.8286 88.4888H52.5718V93.5917H73.8286V88.4888Z"
        fill="#E3E2F1"
    />
    <path
        d="M43.6305 113.629H37.7873C36.8819 113.629 36.1479 112.895 36.1479 111.989V106.146C36.1479 105.241 36.8819 104.507 37.7873 104.507H43.6305C44.5359 104.507 45.2698 105.241 45.2698 106.146V111.989C45.2699 112.895 44.536 113.629 43.6305 113.629Z"
        fill="#E3E2F1"
    />
    <path
        d="M73.8286 106.516H52.5718V111.619H73.8286V106.516Z"
        fill="#E3E2F1"
    />
    <path
        d="M43.6305 131.656H37.7873C36.8819 131.656 36.1479 130.922 36.1479 130.017V124.173C36.1479 123.268 36.8819 122.534 37.7873 122.534H43.6305C44.5359 122.534 45.2698 123.268 45.2698 124.173V130.017C45.2699 130.922 44.536 131.656 43.6305 131.656Z"
        fill="#E3E2F1"
    />
    <path
        d="M73.8286 124.544H52.5718V129.646H73.8286V124.544Z"
        fill="#E3E2F1"
    />
    <path
        d="M37.3528 89.8051L40.2314 92.6837L45.9368 86.9783"
        stroke="#80C571"
        stroke-width="2"
        stroke-miterlimit="10"
    />
    <path
        d="M37.3528 125.86L40.2314 128.739L45.9368 123.033"
        stroke="#80C571"
        stroke-width="2"
        stroke-miterlimit="10"
    />
    <path
        d="M44.7898 104.987L36.6282 113.148"
        stroke="#ED9583"
        stroke-width="2"
        stroke-miterlimit="10"
    />
    <path
        d="M37.8792 106.238L44.7897 113.148"
        stroke="#ED9583"
        stroke-width="2"
        stroke-miterlimit="10"
    />
    <path
        d="M33.636 78.7215C34.7913 78.8659 35.9466 78.4327 36.8131 77.5662C48.5107 64.8577 43.8895 54.8931 43.8895 54.8931C42.1565 50.9939 37.6797 48.9721 33.6361 50.4163C30.6034 51.5716 28.5816 54.171 28.1483 57.0593C25.982 55.0375 22.805 54.3154 19.7722 55.3263C15.7286 56.7705 13.418 61.1029 14.5732 65.2909C14.5733 65.2909 16.7395 76.122 33.636 78.7215Z"
        fill="#ED9583"
    />
    <path
        d="M80.1509 65.1179V49.323C80.1509 45.805 83.0027 42.9532 86.5207 42.9532H109.247C112.765 42.9532 115.617 45.805 115.617 49.323V65.1179C115.617 68.6358 112.765 71.4877 109.247 71.4877H86.5207C83.0027 71.4877 80.1509 68.6358 80.1509 65.1179Z"
        fill="url(#gradient4)"
    />
    <path
        d="M103.031 55.9509L94.2028 50.8538C93.2255 50.2896 92.0039 50.9948 92.0039 52.1234V62.3177C92.0039 63.4462 93.2256 64.1515 94.2028 63.5873L103.031 58.4902C104.009 57.9258 104.009 56.5151 103.031 55.9509Z"
        fill="white"
    />
    <path
        d="M100.243 91.5173V67.2338C100.243 63.7158 103.094 60.864 106.612 60.864H139.89C143.408 60.864 146.26 63.7158 146.26 67.2338V91.5173C146.26 95.0353 143.408 97.8871 139.89 97.8871H106.612C103.095 97.8871 100.243 95.0353 100.243 91.5173Z"
        fill="url(#gradient5)"
    />
    <path d="M139.756 67.7012H106.746V91.05H139.756V67.7012Z" fill="#F7F8FC" />
    <path
        d="M111.112 91.05L117.566 83.3638L123.574 91.05L131.59 79.3756L139.756 91.05H111.112Z"
        fill="url(#gradient6)"
    />
    <path
        d="M122.555 80.3493C124.902 80.3493 126.804 78.4468 126.804 76.0998C126.804 73.7529 124.902 71.8503 122.555 71.8503C120.208 71.8503 118.305 73.7529 118.305 76.0998C118.305 78.4468 120.208 80.3493 122.555 80.3493Z"
        fill="url(#gradient7)"
    />
    <path
        d="M68.7278 56.7222H63.9101C61.4704 56.7222 59.4927 54.7445 59.4927 52.3048V47.487C59.4927 45.0474 61.4704 43.0696 63.9101 43.0696H68.7278C71.1675 43.0696 73.1452 45.0473 73.1452 47.487V52.3047C73.1452 54.7444 71.1675 56.7222 68.7278 56.7222Z"
        fill="#FBC9B6"
    />
    <defs>
        <linearGradient
            id="gradient1"
            x1="82.1507"
            y1="13.719"
            x2="82.1507"
            y2="121.466"
            gradientUnits="userSpaceOnUse"
        >
            <stop stop-color="#F7B547" />
            <stop offset="1" stop-color="#FFD590" />
        </linearGradient>
        <linearGradient
            id="gradient2"
            x1="118.613"
            y1="191.799"
            x2="83.1065"
            y2="98.4171"
            gradientUnits="userSpaceOnUse"
        >
            <stop stop-color="#FFD590" />
            <stop offset="1" stop-color="#FFE5B9" />
        </linearGradient>
        <linearGradient
            id="gradient3"
            x1="173.016"
            y1="209.306"
            x2="149.335"
            y2="153.131"
            gradientUnits="userSpaceOnUse"
        >
            <stop stop-color="#BEBCDE" />
            <stop offset="0.5278" stop-color="#D3D2E9" />
            <stop offset="1" stop-color="#E3E2F1" />
        </linearGradient>
        <linearGradient
            id="gradient4"
            x1="97.8841"
            y1="80.0227"
            x2="97.8841"
            y2="53.998"
            gradientUnits="userSpaceOnUse"
        >
            <stop offset="0.0022" stop-color="#ED9583" />
            <stop offset="1" stop-color="#FBC9B6" />
        </linearGradient>
        <linearGradient
            id="gradient5"
            x1="123.251"
            y1="95.9147"
            x2="123.251"
            y2="61.8957"
            gradientUnits="userSpaceOnUse"
        >
            <stop stop-color="#BEBCDE" />
            <stop offset="1" stop-color="#E3E2F1" />
        </linearGradient>
        <linearGradient
            id="gradient6"
            x1="125.434"
            y1="95.9147"
            x2="125.434"
            y2="61.8957"
            gradientUnits="userSpaceOnUse"
        >
            <stop stop-color="#BEBCDE" />
            <stop offset="1" stop-color="#E3E2F1" />
        </linearGradient>
        <linearGradient
            id="gradient7"
            x1="122.555"
            y1="97.9147"
            x2="122.555"
            y2="63.8957"
            gradientUnits="userSpaceOnUse"
        >
            <stop stop-color="#BEBCDE" />
            <stop offset="1" stop-color="#E3E2F1" />
        </linearGradient>
    </defs>
</svg>