<svg width="110" height="79" viewBox="0 0 110 79" fill="none" xmlns="http://www.w3.org/2000/svg">
<g clip-path="url(#clip0_476_5907)">
<path d="M105.427 0H3.78932C2.94597 0.00121451 2.13743 0.442987 1.54109 1.22839C0.944752 2.01379 0.609321 3.07867 0.608398 4.18939V74.8106C0.609321 75.9213 0.944752 76.9862 1.54109 77.7716C2.13743 78.557 2.94597 78.9988 3.78932 79H105.427C106.271 78.9988 107.079 78.557 107.676 77.7716C108.272 76.9862 108.607 75.9213 108.608 74.8106V4.18939C108.607 3.07867 108.272 2.01379 107.676 1.22839C107.079 0.442987 106.271 0.00121451 105.427 0ZM108.305 74.8106C108.305 75.8156 108.001 76.7792 107.462 77.4898C106.922 78.2005 106.191 78.6001 105.427 78.601H3.78932C3.02625 78.6001 2.29462 78.2005 1.75505 77.4898C1.21547 76.7792 0.912034 75.8156 0.911344 74.8106V4.18939C0.912034 3.1844 1.21547 2.22082 1.75505 1.51018C2.29462 0.799537 3.02625 0.399899 3.78932 0.39899H105.427C106.191 0.399899 106.922 0.799537 107.462 1.51018C108.001 2.22082 108.305 3.1844 108.305 4.18939V74.8106Z" fill="#3F3D56"/>
<path d="M101.909 11.4682H7.22194C7.18043 11.4682 7.14062 11.4472 7.11127 11.4098C7.08192 11.3724 7.06543 11.3217 7.06543 11.2688C7.06543 11.2159 7.08192 11.1651 7.11127 11.1277C7.14062 11.0903 7.18043 11.0693 7.22194 11.0693H101.909C101.95 11.0693 101.99 11.0903 102.02 11.1277C102.049 11.1651 102.065 11.2159 102.065 11.2688C102.065 11.3217 102.049 11.3724 102.02 11.4098C101.99 11.4472 101.95 11.4682 101.909 11.4682Z" fill="#3F3D56"/>
<path d="M41.3669 70.4248C41.314 70.4248 41.2633 70.4038 41.2259 70.3664C41.1885 70.329 41.1675 70.2782 41.1675 70.2253V4.61398C41.1675 4.56109 41.1885 4.51036 41.2259 4.47296C41.2633 4.43556 41.314 4.41455 41.3669 4.41455C41.4198 4.41455 41.4705 4.43556 41.5079 4.47296C41.5453 4.51036 41.5663 4.56109 41.5663 4.61398V70.2253C41.5663 70.2782 41.5453 70.329 41.5079 70.3664C41.4705 70.4038 41.4198 70.4248 41.3669 70.4248Z" fill="#3F3D56"/>
<path d="M71.4802 70.4248C71.4273 70.4248 71.3766 70.4038 71.3392 70.3664C71.3018 70.329 71.2808 70.2782 71.2808 70.2253V4.61398C71.2808 4.56109 71.3018 4.51036 71.3392 4.47296C71.3766 4.43556 71.4273 4.41455 71.4802 4.41455C71.5331 4.41455 71.5838 4.43556 71.6212 4.47296C71.6586 4.51036 71.6796 4.56109 71.6796 4.61398V70.2253C71.6796 70.2782 71.6586 70.329 71.6212 70.3664C71.5838 70.4038 71.5331 70.4248 71.4802 70.4248Z" fill="#3F3D56"/>
<path d="M22.0058 32.0525H14.7187C14.4808 32.0522 14.2527 31.9576 14.0844 31.7893C13.9162 31.6211 13.8216 31.393 13.8213 31.1551V22.5559C13.8216 22.3179 13.9162 22.0898 14.0844 21.9216C14.2527 21.7533 14.4808 21.6587 14.7187 21.6584H22.0058C22.2437 21.6587 22.4718 21.7533 22.64 21.9216C22.8083 22.0898 22.9029 22.3179 22.9032 22.5559V31.1551C22.9029 31.393 22.8083 31.6211 22.64 31.7893C22.4718 31.9576 22.2437 32.0522 22.0058 32.0525Z" fill="#6C63FF"/>
<path d="M32.3759 56.582H25.0888C24.8509 56.5818 24.6228 56.4871 24.4545 56.3189C24.2863 56.1506 24.1917 55.9225 24.1914 55.6846V47.0854C24.1917 46.8475 24.2863 46.6194 24.4545 46.4511C24.6228 46.2829 24.8509 46.1883 25.0888 46.188H32.3759C32.6138 46.1883 32.8419 46.2829 33.0102 46.4511C33.1784 46.6194 33.273 46.8475 33.2733 47.0854V55.6846C33.273 55.9225 33.1784 56.1506 33.0102 56.3189C32.8419 56.4871 32.6138 56.5818 32.3759 56.582Z" fill="#6C63FF"/>
<path d="M55.9081 37.2375H48.6211C48.3831 37.2373 48.155 37.1426 47.9868 36.9744C47.8185 36.8062 47.7239 36.578 47.7236 36.3401V27.7409C47.7239 27.503 47.8185 27.2749 47.9868 27.1066C48.155 26.9384 48.3831 26.8438 48.6211 26.8435H55.9081C56.146 26.8438 56.3741 26.9384 56.5424 27.1066C56.7106 27.2749 56.8052 27.503 56.8055 27.7409V36.3401C56.8052 36.5781 56.7106 36.8062 56.5424 36.9744C56.3741 37.1426 56.146 37.2373 55.9081 37.2375Z" fill="#6C63FF"/>
<path d="M86.4208 27.8645H79.1337C78.8958 27.8642 78.6677 27.7696 78.4995 27.6013C78.3312 27.4331 78.2366 27.205 78.2363 26.9671V18.3679C78.2366 18.13 78.3312 17.9018 78.4995 17.7336C78.6677 17.5654 78.8958 17.4707 79.1337 17.4705H86.4208C86.6587 17.4707 86.8868 17.5654 87.0551 17.7336C87.2233 17.9018 87.3179 18.13 87.3182 18.3679V26.9671C87.3179 27.205 87.2233 27.4331 87.0551 27.6014C86.8868 27.7696 86.6587 27.8642 86.4208 27.8645Z" fill="#6C63FF"/>
<path d="M96.9901 42.4226H89.7031C89.4652 42.4223 89.237 42.3277 89.0688 42.1595C88.9006 41.9912 88.8059 41.7631 88.8057 41.5252V32.926C88.8059 32.6881 88.9006 32.4599 89.0688 32.2917C89.237 32.1235 89.4652 32.0288 89.7031 32.0286H96.9901C97.2281 32.0288 97.4562 32.1235 97.6244 32.2917C97.7926 32.4599 97.8873 32.6881 97.8875 32.926V41.5252C97.8873 41.7631 97.7926 41.9912 97.6244 42.1595C97.4562 42.3277 97.2281 42.4223 96.9901 42.4226Z" fill="#FF6584"/>
<path d="M82.8309 45.6135H75.5439C75.306 45.6132 75.0779 45.5186 74.9096 45.3504C74.7414 45.1821 74.6468 44.954 74.6465 44.7161V36.1169C74.6468 35.879 74.7414 35.6509 74.9096 35.4826C75.0779 35.3144 75.306 35.2198 75.5439 35.2195H82.8309C83.0689 35.2198 83.297 35.3144 83.4652 35.4826C83.6335 35.6509 83.7281 35.879 83.7284 36.1169V44.7161C83.7281 44.954 83.6335 45.1821 83.4652 45.3504C83.297 45.5186 83.0689 45.6132 82.8309 45.6135Z" fill="#E6E6E6"/>
<path d="M52.3187 59.1745H45.0317C44.7938 59.1743 44.5657 59.0796 44.3974 58.9114C44.2292 58.7432 44.1345 58.5151 44.1343 58.2771V49.6779C44.1345 49.44 44.2292 49.2119 44.3974 49.0437C44.5657 48.8754 44.7938 48.7808 45.0317 48.7805H52.3187C52.5567 48.7808 52.7848 48.8754 52.953 49.0437C53.1213 49.2119 53.2159 49.44 53.2162 49.6779V58.2771C53.2159 58.5151 53.1213 58.7432 52.953 58.9114C52.7848 59.0797 52.5567 59.1743 52.3187 59.1745Z" fill="#E6E6E6"/>
<path d="M15.4247 47.8071H8.13765C7.89972 47.8069 7.67162 47.7122 7.50338 47.544C7.33513 47.3757 7.2405 47.1476 7.24023 46.9097V38.3105C7.2405 38.0726 7.33513 37.8445 7.50338 37.6762C7.67162 37.508 7.89972 37.4133 8.13765 37.4131H15.4247C15.6626 37.4133 15.8907 37.508 16.059 37.6762C16.2272 37.8445 16.3219 38.0726 16.3221 38.3105V46.9097C16.3219 47.1476 16.2272 47.3757 16.059 47.544C15.8907 47.7122 15.6626 47.8069 15.4247 47.8071Z" fill="#FF6584"/>
<path d="M35.9657 32.0525H28.6787C28.4407 32.0522 28.2126 31.9576 28.0444 31.7893C27.8761 31.6211 27.7815 31.393 27.7812 31.1551V22.5559C27.7815 22.3179 27.8761 22.0898 28.0444 21.9216C28.2126 21.7533 28.4407 21.6587 28.6787 21.6584H35.9657C36.2036 21.6587 36.4318 21.7533 36.6 21.9216C36.7682 22.0898 36.8629 22.3179 36.8631 22.5559V31.1551C36.8629 31.393 36.7682 31.6211 36.6 31.7893C36.4318 31.9576 36.2036 32.0522 35.9657 32.0525Z" fill="#E6E6E6"/>
<path d="M29.9995 8.20357H18.6322C18.4206 8.20357 18.2177 8.11952 18.0681 7.96993C17.9185 7.82033 17.8345 7.61743 17.8345 7.40586C17.8345 7.1943 17.9185 6.9914 18.0681 6.8418C18.2177 6.6922 18.4206 6.60815 18.6322 6.60815H29.9995C30.2111 6.60815 30.414 6.6922 30.5636 6.8418C30.7132 6.9914 30.7972 7.1943 30.7972 7.40586C30.7972 7.61743 30.7132 7.82033 30.5636 7.96993C30.414 8.11952 30.2111 8.20357 29.9995 8.20357Z" fill="#CCCCCC"/>
<path d="M62.1074 8.20357H50.7401C50.5285 8.20357 50.3256 8.11952 50.176 7.96993C50.0264 7.82033 49.9424 7.61743 49.9424 7.40586C49.9424 7.1943 50.0264 6.9914 50.176 6.8418C50.3256 6.6922 50.5285 6.60815 50.7401 6.60815H62.1074C62.319 6.60815 62.5219 6.6922 62.6715 6.8418C62.8211 6.9914 62.9051 7.1943 62.9051 7.40586C62.9051 7.61743 62.8211 7.82033 62.6715 7.96993C62.5219 8.11952 62.319 8.20357 62.1074 8.20357Z" fill="#CCCCCC"/>
<path d="M92.2207 8.20357H80.8534C80.6418 8.20357 80.4389 8.11952 80.2893 7.96993C80.1397 7.82033 80.0557 7.61743 80.0557 7.40586C80.0557 7.1943 80.1397 6.9914 80.2893 6.8418C80.4389 6.6922 80.6418 6.60815 80.8534 6.60815H92.2207C92.4323 6.60815 92.6352 6.6922 92.7848 6.8418C92.9344 6.9914 93.0184 7.1943 93.0184 7.40586C93.0184 7.61743 92.9344 7.82033 92.7848 7.96993C92.6352 8.11952 92.4323 8.20357 92.2207 8.20357Z" fill="#CCCCCC"/>
</g>
<defs>
<clipPath id="clip0_476_5907">
<rect width="109" height="79" fill="white" transform="translate(0.553711)"/>
</clipPath>
</defs>
</svg>
