<svg width="72" height="80" viewBox="0 0 72 80" fill="none" xmlns="http://www.w3.org/2000/svg">
<path d="M67.3443 80H4.70709C3.59117 79.9987 2.52132 79.5549 1.73224 78.7658C0.943165 77.9767 0.499306 76.9069 0.498047 75.7909V4.20907C0.499307 3.09314 0.943166 2.02329 1.73224 1.23421C2.52132 0.445126 3.59117 0.00126582 4.70709 0H67.3443C68.4602 0.00126077 69.5301 0.44512 70.3192 1.2342C71.1082 2.02328 71.5521 3.09314 71.5534 4.20907V75.7909C71.5521 76.9069 71.1082 77.9767 70.3192 78.7658C69.5301 79.5549 68.4602 79.9987 67.3443 80Z" fill="#E6E6E6"/>
<path d="M64.4171 76.492H7.63366C6.64285 76.4909 5.69294 76.0967 4.99232 75.3961C4.29171 74.6955 3.89761 73.7456 3.89648 72.7548V7.24524C3.89761 6.25442 4.29171 5.30451 4.99232 4.6039C5.69294 3.90328 6.64285 3.50918 7.63366 3.50806H64.4171C65.4079 3.50918 66.3578 3.90328 67.0584 4.60389C67.759 5.30451 68.1532 6.25442 68.1543 7.24524V72.7548C68.1532 73.7456 67.759 74.6955 67.0584 75.3961C66.3578 76.0967 65.4079 76.4909 64.4171 76.492Z" fill="white"/>
<path d="M62.1588 12.8318H33.5132C33.3904 12.832 33.2688 12.808 33.1553 12.7611C33.0418 12.7142 32.9386 12.6454 32.8517 12.5587C32.7648 12.4719 32.6959 12.3689 32.6489 12.2554C32.6018 12.142 32.5776 12.0204 32.5776 11.8976C32.5776 11.7748 32.6018 11.6532 32.6489 11.5398C32.6959 11.4264 32.7648 11.3233 32.8517 11.2365C32.9386 11.1498 33.0418 11.081 33.1553 11.0341C33.2688 10.9872 33.3904 10.9632 33.5132 10.9634H62.1588C62.2816 10.9632 62.4032 10.9872 62.5167 11.0341C62.6302 11.081 62.7334 11.1498 62.8202 11.2365C62.9071 11.3233 62.9761 11.4264 63.0231 11.5398C63.0701 11.6532 63.0943 11.7748 63.0943 11.8976C63.0943 12.0204 63.0701 12.142 63.0231 12.2554C62.9761 12.3689 62.9071 12.4719 62.8202 12.5587C62.7334 12.6454 62.6302 12.7142 62.5167 12.7611C62.4032 12.808 62.2816 12.832 62.1588 12.8318Z" fill="#E4E4E4"/>
<path d="M62.1585 16.5236H33.5129C33.2651 16.5236 33.0275 16.4251 32.8523 16.2499C32.677 16.0747 32.5786 15.8371 32.5786 15.5893C32.5786 15.3415 32.677 15.1039 32.8523 14.9287C33.0275 14.7535 33.2651 14.655 33.5129 14.655H62.1585C62.4062 14.655 62.6439 14.7535 62.8191 14.9287C62.9943 15.1039 63.0927 15.3415 63.0927 15.5893C63.0927 15.8371 62.9943 16.0747 62.8191 16.2499C62.6439 16.4251 62.4062 16.5236 62.1585 16.5236Z" fill="#E4E4E4"/>
<path d="M45.9301 20.215H33.5129C33.2651 20.215 33.0275 20.1165 32.8523 19.9413C32.677 19.7661 32.5786 19.5285 32.5786 19.2807C32.5786 19.0329 32.677 18.7953 32.8523 18.6201C33.0275 18.4449 33.2651 18.3464 33.5129 18.3464H45.9301C46.1778 18.3464 46.4155 18.4449 46.5907 18.6201C46.7659 18.7953 46.8643 19.0329 46.8643 19.2807C46.8643 19.5285 46.7659 19.7661 46.5907 19.9413C46.4155 20.1165 46.1778 20.215 45.9301 20.215Z" fill="#E4E4E4"/>
<path d="M58.7039 35.125H13.4815C13.3587 35.1252 13.237 35.1012 13.1235 35.0543C13.01 35.0074 12.9069 34.9387 12.82 34.8519C12.7331 34.7651 12.6642 34.6621 12.6171 34.5486C12.5701 34.4352 12.5459 34.3136 12.5459 34.1908C12.5459 34.068 12.5701 33.9464 12.6171 33.833C12.6642 33.7196 12.7331 33.6165 12.82 33.5297C12.9069 33.443 13.01 33.3742 13.1235 33.3273C13.237 33.2805 13.3587 33.2564 13.4815 33.2566H58.7039C58.8267 33.2564 58.9483 33.2805 59.0618 33.3273C59.1754 33.3742 59.2785 33.443 59.3654 33.5297C59.4523 33.6165 59.5212 33.7196 59.5682 33.833C59.6153 33.9464 59.6395 34.068 59.6395 34.1908C59.6395 34.3136 59.6153 34.4352 59.5682 34.5486C59.5212 34.6621 59.4523 34.7651 59.3654 34.8519C59.2785 34.9387 59.1754 35.0074 59.0618 35.0543C58.9483 35.1012 58.8267 35.1252 58.7039 35.125Z" fill="#E4E4E4"/>
<path d="M58.7041 38.8165H13.4816C13.2339 38.8165 12.9962 38.7181 12.821 38.5429C12.6458 38.3677 12.5474 38.1301 12.5474 37.8823C12.5474 37.6345 12.6458 37.3969 12.821 37.2216C12.9962 37.0464 13.2339 36.948 13.4816 36.948H58.7041C58.9519 36.948 59.1895 37.0464 59.3647 37.2216C59.5399 37.3969 59.6384 37.6345 59.6384 37.8823C59.6384 38.1301 59.5399 38.3677 59.3647 38.5429C59.1895 38.7181 58.9519 38.8165 58.7041 38.8165Z" fill="#E4E4E4"/>
<path d="M58.704 47.1963H13.4816C13.2338 47.1963 12.9962 47.0979 12.821 46.9227C12.6458 46.7475 12.5474 46.5099 12.5474 46.2621C12.5474 46.0143 12.6458 45.7767 12.821 45.6015C12.9962 45.4263 13.2338 45.3279 13.4816 45.3279H58.704C58.9518 45.3279 59.1895 45.4263 59.3647 45.6015C59.5399 45.7767 59.6383 46.0143 59.6383 46.2621C59.6383 46.5099 59.5399 46.7475 59.3647 46.9227C59.1895 47.0979 58.9518 47.1963 58.704 47.1963Z" fill="#E4E4E4"/>
<path d="M58.7041 50.8878H13.4816C13.2339 50.8878 12.9962 50.7894 12.821 50.6142C12.6458 50.439 12.5474 50.2013 12.5474 49.9536C12.5474 49.7058 12.6458 49.4681 12.821 49.2929C12.9962 49.1177 13.2339 49.0193 13.4816 49.0193H58.7041C58.9519 49.0193 59.1895 49.1177 59.3647 49.2929C59.5399 49.4681 59.6384 49.7058 59.6384 49.9536C59.6384 50.2013 59.5399 50.439 59.3647 50.6142C59.1895 50.7894 58.9519 50.8878 58.7041 50.8878Z" fill="#E4E4E4"/>
<path d="M58.704 59.2676H13.4816C13.2338 59.2676 12.9962 59.1692 12.821 58.994C12.6458 58.8188 12.5474 58.5812 12.5474 58.3334C12.5474 58.0856 12.6458 57.848 12.821 57.6728C12.9962 57.4976 13.2338 57.3992 13.4816 57.3992H58.704C58.9518 57.3992 59.1895 57.4976 59.3647 57.6728C59.5399 57.848 59.6383 58.0856 59.6383 58.3334C59.6383 58.5812 59.5399 58.8188 59.3647 58.994C59.1895 59.1692 58.9518 59.2676 58.704 59.2676Z" fill="#E4E4E4"/>
<path d="M58.7041 62.9591H13.4816C13.2339 62.9591 12.9962 62.8607 12.821 62.6855C12.6458 62.5103 12.5474 62.2726 12.5474 62.0249C12.5474 61.7771 12.6458 61.5394 12.821 61.3642C12.9962 61.189 13.2339 61.0906 13.4816 61.0906H58.7041C58.9519 61.0906 59.1895 61.189 59.3647 61.3642C59.5399 61.5394 59.6384 61.7771 59.6384 62.0249C59.6384 62.2726 59.5399 62.5103 59.3647 62.6855C59.1895 62.8607 58.9519 62.9591 58.7041 62.9591Z" fill="#E4E4E4"/>
<path d="M58.6962 73.185H46.279C46.0312 73.185 45.7936 73.0865 45.6184 72.9113C45.4432 72.7361 45.3447 72.4985 45.3447 72.2507C45.3447 72.0029 45.4432 71.7653 45.6184 71.5901C45.7936 71.4148 46.0312 71.3164 46.279 71.3164H58.6962C58.944 71.3164 59.1816 71.4148 59.3568 71.5901C59.532 71.7653 59.6304 72.0029 59.6304 72.2507C59.6304 72.4985 59.532 72.7361 59.3568 72.9113C59.1816 73.0865 58.944 73.185 58.6962 73.185Z" fill="#6C63FF"/>
<path d="M25.5837 15.6986C25.5863 17.7049 24.9071 19.6526 23.6574 21.2223C23.2532 21.7332 22.793 22.1972 22.2855 22.6056C20.9004 23.7292 19.2082 24.408 17.4306 24.5529C17.1886 24.5739 16.9446 24.5834 16.6988 24.5834C16.2118 24.5835 15.7255 24.5434 15.245 24.4634C15.0755 24.4367 14.9097 24.4043 14.744 24.3662C14.4554 24.302 14.1705 24.2225 13.8903 24.128C12.9819 23.8257 12.1286 23.3778 11.3637 22.8019C11.1599 22.6494 10.9637 22.4875 10.7731 22.316C10.5401 22.1093 10.3193 21.8892 10.1119 21.6567C10.0567 21.5958 10.0014 21.5329 9.9481 21.47C9.01839 20.3819 8.36539 19.0852 8.04469 17.6903C7.724 16.2955 7.74512 14.8438 8.10624 13.4589C8.46737 12.074 9.1578 10.7968 10.1188 9.73616C11.0797 8.67552 12.2828 7.86279 13.6255 7.36718C14.9681 6.87157 16.4107 6.70775 17.8303 6.88968C19.2499 7.0716 20.6046 7.59387 21.7789 8.41203C22.9532 9.23019 23.9125 10.32 24.5749 11.5887C25.2374 12.8574 25.5835 14.2674 25.5837 15.6986L25.5837 15.6986Z" fill="#E4E4E4"/>
<path d="M16.3895 18.7307C18.4004 18.7307 20.0305 17.1006 20.0305 15.0897C20.0305 13.0789 18.4004 11.4487 16.3895 11.4487C14.3787 11.4487 12.7485 13.0789 12.7485 15.0897C12.7485 17.1006 14.3787 18.7307 16.3895 18.7307Z" fill="#9E616A"/>
<path d="M20.4423 13.315C20.4588 12.9896 20.367 12.668 20.1813 12.4004L20.0498 12.2136C19.5753 11.2991 18.7922 10.4759 18.2187 9.87383C17.7881 9.42225 17.3575 9.20503 16.944 9.22599C16.643 9.24748 16.3629 9.38723 16.1647 9.61469C15.6202 9.58144 15.0777 9.70776 14.6039 9.97817C14.1301 10.2486 13.7455 10.6513 13.4971 11.1371C11.7537 12.0574 12.2739 14.7745 12.2796 14.8031L12.7008 15.51L12.7484 15.4204C12.7484 15.4185 12.7541 15.4109 12.7617 15.3956C12.8437 15.2489 13.2895 14.4334 13.5906 13.9171C13.7004 13.7409 13.8466 13.5902 14.0193 13.475C14.3012 13.2823 14.6253 13.1602 14.9643 13.1187L15.8903 12.9987L15.5398 13.5246H18.0624L19.0323 13.4102C19.1295 13.8085 19.8993 15.3537 19.9926 15.5405L20.0002 15.5557L20.0516 15.6605L20.3394 14.8698C20.5074 14.3691 20.5429 13.8334 20.4423 13.315Z" fill="#2F2E41"/>
<path d="M11.39 22.821C11.5462 22.6152 12.356 21.6549 14.2195 21.1461L15.2065 20.0467L19.1639 19.416L21.1779 20.5288L23.6569 21.2223C23.2527 21.7332 22.7925 22.1972 22.285 22.6056C20.8999 23.7292 19.2076 24.408 17.43 24.5529C17.1881 24.5739 16.9442 24.5834 16.6984 24.5834C16.2113 24.5835 15.725 24.5434 15.2446 24.4634C15.075 24.4367 14.9092 24.4043 14.7434 24.3662C14.4549 24.302 14.1699 24.2225 13.8898 24.128C12.9917 23.8296 12.1475 23.3883 11.39 22.821C11.3804 22.8152 11.3728 22.8076 11.3633 22.8019L11.39 22.821Z" fill="#6C63FF"/>
</svg>
