<svg width="81" height="64" viewBox="0 0 81 64" fill="none" xmlns="http://www.w3.org/2000/svg">
<path d="M60.9131 18.5754H15.3299C14.5101 18.5827 13.7167 18.3746 13.1095 17.9931C12.5022 17.6116 12.1262 17.085 12.0571 16.5192C12.0276 16.2174 12.0878 15.9147 12.2342 15.6297C12.3806 15.3447 12.61 15.0836 12.9081 14.8626C13.2062 14.6415 13.5667 14.4652 13.9672 14.3447C14.3678 14.2241 14.7998 14.1618 15.2366 14.1616H60.9131C61.7582 14.1616 62.5688 14.3941 63.1664 14.808C63.7641 15.2219 64.0998 15.7832 64.0998 16.3685C64.0998 16.9538 63.7641 17.5151 63.1664 17.929C62.5688 18.3429 61.7582 18.5754 60.9131 18.5754H60.9131Z" fill="white"/>
<path d="M45.8888 18.5754H14.3214C13.7536 18.5827 13.2042 18.3746 12.7837 17.9931C12.3631 17.6116 12.1027 17.085 12.0549 16.5192C12.0344 16.2174 12.0761 15.9147 12.1775 15.6297C12.2789 15.3447 12.4377 15.0836 12.6442 14.8626C12.8506 14.6415 13.1003 14.4652 13.3777 14.3447C13.6551 14.2241 13.9543 14.1618 14.2567 14.1616H45.8888C46.4741 14.1616 47.0355 14.3941 47.4493 14.808C47.8632 15.2219 48.0957 15.7832 48.0957 16.3685C48.0957 16.9538 47.8632 17.5151 47.4493 17.929C47.0355 18.3429 46.4741 18.5754 45.8888 18.5754H45.8888Z" fill="#B5548E"/>
<path d="M64.0453 22.1615H12.14C12.0912 22.1615 12.0444 22.1421 12.0099 22.1077C11.9754 22.0732 11.9561 22.0264 11.9561 21.9776C11.9561 21.9288 11.9754 21.8821 12.0099 21.8476C12.0444 21.8131 12.0912 21.7937 12.14 21.7937H64.0453C64.0941 21.7937 64.1409 21.8131 64.1754 21.8476C64.2099 21.8821 64.2293 21.9288 64.2293 21.9776C64.2293 22.0264 64.2099 22.0732 64.1754 22.1077C64.1409 22.1421 64.0941 22.1615 64.0453 22.1615Z" fill="#CACFFC"/>
<path d="M61.8869 18.6673H14.2549C13.6452 18.6673 13.0605 18.4251 12.6294 17.994C12.1983 17.5628 11.9561 16.9781 11.9561 16.3684C11.9561 15.7587 12.1983 15.174 12.6294 14.7429C13.0605 14.3118 13.6452 14.0696 14.2549 14.0696H61.8869C62.4966 14.0696 63.0814 14.3118 63.5125 14.7429C63.9436 15.174 64.1858 15.7587 64.1858 16.3684C64.1858 16.9781 63.9436 17.5628 63.5125 17.994C63.0814 18.4251 62.4966 18.6673 61.8869 18.6673ZM14.2549 14.4374C13.7428 14.4374 13.2516 14.6408 12.8895 15.003C12.5273 15.3651 12.3239 15.8563 12.3239 16.3684C12.3239 16.8806 12.5273 17.3717 12.8895 17.7339C13.2516 18.096 13.7428 18.2995 14.2549 18.2995H61.8869C62.3991 18.2995 62.8903 18.096 63.2524 17.7339C63.6145 17.3717 63.818 16.8806 63.818 16.3684C63.818 15.8563 63.6145 15.3651 63.2524 15.003C62.8903 14.6408 62.3991 14.4374 61.8869 14.4374H14.2549Z" fill="#5962B7"/>
<path d="M64.0453 39.4486H12.14C12.0912 39.4486 12.0444 39.4293 12.0099 39.3948C11.9754 39.3603 11.9561 39.3135 11.9561 39.2647C11.9561 39.2159 11.9754 39.1692 12.0099 39.1347C12.0444 39.1002 12.0912 39.0808 12.14 39.0808H64.0453C64.0941 39.0808 64.1409 39.1002 64.1754 39.1347C64.2099 39.1692 64.2293 39.2159 64.2293 39.2647C64.2293 39.3135 64.2099 39.3603 64.1754 39.3948C64.1409 39.4293 64.0941 39.4486 64.0453 39.4486Z" fill="#CACFFC"/>
<path d="M60.9131 35.9138H15.3299C14.5101 35.9211 13.7167 35.713 13.1095 35.3315C12.5022 34.95 12.1262 34.4234 12.0571 33.8576C12.0276 33.5558 12.0878 33.253 12.2342 32.9681C12.3806 32.6831 12.61 32.422 12.9081 32.2009C13.2062 31.9799 13.5667 31.8036 13.9672 31.683C14.3678 31.5625 14.7998 31.5002 15.2366 31.5H60.9131C61.7582 31.5 62.5688 31.7325 63.1664 32.1464C63.7641 32.5603 64.0998 33.1216 64.0998 33.7069C64.0998 34.2922 63.7641 34.8535 63.1664 35.2674C62.5688 35.6813 61.7582 35.9138 60.9131 35.9138H60.9131Z" fill="white"/>
<path d="M31.849 35.8625H14.4425C13.8747 35.8698 13.3253 35.6618 12.9047 35.2803C12.4842 34.8987 12.2238 34.3721 12.176 33.8063C12.1555 33.5045 12.1972 33.2018 12.2986 32.9168C12.4 32.6318 12.5588 32.3707 12.7653 32.1497C12.9717 31.9286 13.2214 31.7524 13.4988 31.6318C13.7762 31.5112 14.0754 31.4489 14.3778 31.4487H31.849C32.4343 31.4487 32.9957 31.6812 33.4095 32.0951C33.8234 32.509 34.0559 33.0703 34.0559 33.6556C34.0559 34.2409 33.8234 34.8023 33.4095 35.2161C32.9957 35.63 32.4343 35.8625 31.849 35.8625Z" fill="#B5548E"/>
<path d="M61.8869 35.9544H14.2549C13.6452 35.9544 13.0605 35.7122 12.6294 35.2811C12.1983 34.8499 11.9561 34.2652 11.9561 33.6555C11.9561 33.0458 12.1983 32.4611 12.6294 32.03C13.0605 31.5989 13.6452 31.3567 14.2549 31.3567H61.8869C62.4966 31.3567 63.0814 31.5989 63.5125 32.03C63.9436 32.4611 64.1858 33.0458 64.1858 33.6555C64.1858 34.2652 63.9436 34.8499 63.5125 35.2811C63.0814 35.7122 62.4966 35.9544 61.8869 35.9544ZM14.2549 31.7245C13.7428 31.7245 13.2516 31.928 12.8895 32.2901C12.5273 32.6522 12.3239 33.1434 12.3239 33.6555C12.3239 34.1677 12.5273 34.6588 12.8895 35.021C13.2516 35.3831 13.7428 35.5866 14.2549 35.5866H61.8869C62.3991 35.5866 62.8903 35.3831 63.2524 35.021C63.6145 34.6588 63.818 34.1677 63.818 33.6555C63.818 33.1434 63.6145 32.6522 63.2524 32.2901C62.8903 31.928 62.3991 31.7245 61.8869 31.7245H14.2549Z" fill="#5962B7"/>
<path d="M61.5171 52.9998H14.6646C14.0121 53.0064 13.3805 52.8179 12.8972 52.4722C12.4138 52.1264 12.1145 51.6492 12.0595 51.1365C12.036 50.863 12.084 50.5886 12.2005 50.3304C12.317 50.0721 12.4996 49.8355 12.7369 49.6352C12.9742 49.4349 13.2611 49.2751 13.58 49.1659C13.8988 49.0566 14.2427 49.0001 14.5903 49H61.5171C62.1899 49 62.8351 49.2107 63.3108 49.5858C63.7865 49.9608 64.0537 50.4695 64.0537 50.9999C64.0537 51.5303 63.7865 52.039 63.3108 52.4141C62.8351 52.7891 62.1899 52.9998 61.5171 52.9998H61.5171Z" fill="white"/>
<path d="M55.0842 53.1496H14.3214C13.7536 53.1569 13.2042 52.9489 12.7837 52.5674C12.3631 52.1858 12.1027 51.6592 12.0549 51.0934C12.0344 50.7916 12.0761 50.4889 12.1775 50.2039C12.2789 49.9189 12.4377 49.6578 12.6442 49.4368C12.8506 49.2157 13.1003 49.0395 13.3777 48.9189C13.6551 48.7983 13.9543 48.736 14.2567 48.7358H55.0842C55.6695 48.7358 56.2308 48.9684 56.6447 49.3822C57.0586 49.7961 57.2911 50.3574 57.2911 50.9427C57.2911 51.528 57.0586 52.0894 56.6447 52.5032C56.2308 52.9171 55.6695 53.1496 55.0842 53.1496H55.0842Z" fill="#B5548E"/>
<path d="M64.0453 56.736H12.14C12.0912 56.736 12.0444 56.7166 12.0099 56.6821C11.9754 56.6476 11.9561 56.6008 11.9561 56.5521C11.9561 56.5033 11.9754 56.4565 12.0099 56.422C12.0444 56.3875 12.0912 56.3682 12.14 56.3682H64.0453C64.0941 56.3682 64.1409 56.3875 64.1754 56.422C64.2099 56.4565 64.2293 56.5033 64.2293 56.5521C64.2293 56.6008 64.2099 56.6476 64.1754 56.6821C64.1409 56.7166 64.0941 56.736 64.0453 56.736Z" fill="#CACFFC"/>
<path d="M61.8869 53.2417H14.2549C13.6452 53.2417 13.0605 52.9995 12.6294 52.5684C12.1983 52.1373 11.9561 51.5526 11.9561 50.9429C11.9561 50.3332 12.1983 49.7485 12.6294 49.3174C13.0605 48.8862 13.6452 48.644 14.2549 48.644H61.8869C62.4966 48.644 63.0814 48.8862 63.5125 49.3174C63.9436 49.7485 64.1858 50.3332 64.1858 50.9429C64.1858 51.5526 63.9436 52.1373 63.5125 52.5684C63.0814 52.9995 62.4966 53.2417 61.8869 53.2417ZM14.2549 49.0119C13.7428 49.0119 13.2516 49.2153 12.8895 49.5774C12.5273 49.9396 12.3239 50.4307 12.3239 50.9429C12.3239 51.455 12.5273 51.9462 12.8895 52.3083C13.2516 52.6705 13.7428 52.8739 14.2549 52.8739H61.8869C62.3991 52.8739 62.8903 52.6705 63.2524 52.3083C63.6145 51.9462 63.818 51.455 63.818 50.9429C63.818 50.4307 63.6145 49.9396 63.2524 49.5774C62.8903 49.2153 62.3991 49.0119 61.8869 49.0119H14.2549Z" fill="#5962B7"/>
<path d="M42.8917 16.3321H42.5239V2.16333H69.1274V2.53115H42.8917V16.3321Z" fill="#CACFFC"/>
<path d="M70.2648 4.39388C71.4782 4.39388 72.4618 3.41028 72.4618 2.19694C72.4618 0.983604 71.4782 0 70.2648 0C69.0515 0 68.0679 0.983604 68.0679 2.19694C68.0679 3.41028 69.0515 4.39388 70.2648 4.39388Z" fill="#CACFFC"/>
<path d="M30.1234 33.6194H30.4912V25.5195H3.8877V25.8873H30.1234V33.6194Z" fill="#CACFFC"/>
<path d="M2.75065 27.7501C3.96399 27.7501 4.94759 26.7665 4.94759 25.5531C4.94759 24.3398 3.96399 23.3562 2.75065 23.3562C1.53731 23.3562 0.553711 24.3398 0.553711 25.5531C0.553711 26.7665 1.53731 27.7501 2.75065 27.7501Z" fill="#CACFFC"/>
<path d="M55.0299 51.531H54.6621V61.6538H77.2197V61.286H55.0299V51.531Z" fill="#CACFFC"/>
<path d="M78.3566 63.8172C79.57 63.8172 80.5536 62.8336 80.5536 61.6203C80.5536 60.4069 79.57 59.4233 78.3566 59.4233C77.1433 59.4233 76.1597 60.4069 76.1597 61.6203C76.1597 62.8336 77.1433 63.8172 78.3566 63.8172Z" fill="#CACFFC"/>
</svg>
